<svg xmlns="http://www.w3.org/2000/svg" viewBox="0 0 240 180" width="240" height="180" role="img" aria-labelledby="title">
<title id="title">Нур Алем — авторская иллюстрация</title>
<defs>
  <linearGradient id="sky" x1="0" y1="0" x2="0" y2="1"><stop stop-color="#edf0e6"/><stop offset="1" stop-color="#faf5e9"/></linearGradient>
  <linearGradient id="glass" x1="0" y1="0" x2="1" y2="1"><stop stop-color="#b8d3c8"/><stop offset="1" stop-color="#628f81"/></linearGradient>
  <linearGradient id="gold" x1="0" y1="0" x2="1" y2="1"><stop stop-color="#e6d19a"/><stop offset="1" stop-color="#b99550"/></linearGradient>
  <symbol id="tree" viewBox="0 0 34 70"><path d="M17 36v32m0-17L8 40m9 16 9-18" stroke="#4c7460" stroke-width="1.4" fill="none"/><path d="M17 2C4 3-2 16 3 29c-6 13 3 22 14 21 13 2 22-11 15-22C36 14 28 2 17 2Z" fill="#7fa38b"/><path d="M17 14v36m0-20L9 23m8 13 8-11" stroke="#557b64" stroke-width="1.1" fill="none"/></symbol>
  <symbol id="pine" viewBox="0 0 26 58"><path d="M13 40v18" stroke="#4c7460" stroke-width="1.4"/><path d="m13 0-8 18h4L1 35h6L0 49h26l-7-14h6l-8-17h4Z" fill="#5e8874"/><path d="M13 12v37m0-15-6-7m6 16 7-9" stroke="#8aaa8e" stroke-width="1" fill="none"/></symbol>
  <symbol id="bush" viewBox="0 0 42 18"><path d="M1 17C-2 9 7 3 15 6c1-9 14-8 18 0 8-1 12 7 8 11Z" fill="#a0b59a"/><path d="m11 15 6-7m8 7 6-6" stroke="#718f75" stroke-width="1"/></symbol>
  <symbol id="lamp" viewBox="0 0 10 38"><path d="M5 8v30M2 37h6" stroke="#557667" stroke-width="1.2"/><path d="M1 3h8L8 9H2Z" fill="#e4cf96" stroke="#557667" stroke-width="1"/><path d="M5 0v3" stroke="#557667" stroke-width="1"/></symbol>
</defs>
<rect width="240" height="180" fill="url(#sky)"/>
<circle cx="190" cy="32" r="19" fill="#e4cf9e" opacity=".62"/>
<g fill="none" stroke="#ced8ca" stroke-width="1.1" stroke-linecap="round"><path d="M18 39h24m-16 6h34M173 24h25m-6 6h26"/><path d="m37 65 3-2 3 2m107-25 3-2 3 2" stroke="#8da08c"/></g>
<path d="M0 137Q47 125 88 137T168 135T240 136V180H0Z" fill="#dce4d3"/><path d="M0 156q64-13 116-3t124-6v33H0Z" fill="#cad8c1"/>

<path d="M13 139h214v13H13Z" fill="#e2dcca"/>
<path d="M16 126h47v17H16Zm163 0h47v17h-47Z" fill="#a9c1b1" stroke="#779d89" stroke-width="1"/>
<path d="M18 128h43m120 0h42M22 136h30m135 0h30" stroke="#dfe7d4" fill="none" stroke-width="1"/>
<circle cx="120" cy="90" r="53" fill="url(#glass)" stroke="#577f71" stroke-width="1.2"/>
<path d="M77 59q51-32 86 22c-19-46-59-55-86-22Z" fill="#e6e5c7" opacity=".75"/>
<path d="M78 118q59 30 87-13c-18 43-56 54-87 13Z" fill="#3f7366" opacity=".28"/>
<g fill="none" stroke="#d4e0cb" stroke-width=".9"><ellipse cx="120" cy="90" rx="30" ry="53"/><ellipse cx="120" cy="90" rx="11" ry="53"/><path d="M68 90h104M76 62q44 13 87 0M71 76q49 13 98 0M71 105q49 13 98 0M82 125q38 11 76 0"/></g>
<path d="M103 134h34v12h-34Z" fill="#436e60"/><path d="M111 139h18v7h-18Z" fill="#c6d6c1"/>
<path d="m119 149-37 31h76l-37-31" fill="#eee6d2"/>
<g fill="#c0b99b"><ellipse cx="58" cy="155" rx="24" ry="4"/><ellipse cx="188" cy="157" rx="26" ry="4"/></g>
<use href="#bush" x="28" y="141" width="46" height="20"/><use href="#bush" x="169" y="143" width="42" height="18"/>
<use href="#lamp" x="21" y="117" width="8" height="33"/><use href="#lamp" x="219" y="116" width="8" height="33"/>
<path d="M0 172h45m149-2h46" stroke="#aaba9e" stroke-width="1.1" fill="none"/>

</svg>